<svg width="23" height="23" viewBox="0 0 23 23" fill="none" xmlns="http://www.w3.org/2000/svg">
    <path
        d="M6.70646 0C3.00825 0 0 3.01104 0 6.71021V16.2935C0 19.9917 3.01104 23 6.71021 23H16.2935C19.9917 23 23 19.989 23 16.2898V6.70646C23 3.00825 19.989 0 16.2898 0H6.70646ZM18.2083 3.83333C18.7373 3.83333 19.1667 4.26267 19.1667 4.79167C19.1667 5.32067 18.7373 5.75 18.2083 5.75C17.6793 5.75 17.25 5.32067 17.25 4.79167C17.25 4.26267 17.6793 3.83333 18.2083 3.83333ZM11.5 5.75C14.6711 5.75 17.25 8.32887 17.25 11.5C17.25 14.6711 14.6711 17.25 11.5 17.25C8.32887 17.25 5.75 14.6711 5.75 11.5C5.75 8.32887 8.32887 5.75 11.5 5.75ZM11.5 7.66667C10.4833 7.66667 9.50831 8.07053 8.78942 8.78942C8.07053 9.50831 7.66667 10.4833 7.66667 11.5C7.66667 12.5167 8.07053 13.4917 8.78942 14.2106C9.50831 14.9295 10.4833 15.3333 11.5 15.3333C12.5167 15.3333 13.4917 14.9295 14.2106 14.2106C14.9295 13.4917 15.3333 12.5167 15.3333 11.5C15.3333 10.4833 14.9295 9.50831 14.2106 8.78942C13.4917 8.07053 12.5167 7.66667 11.5 7.66667Z"
        fill="black" />
</svg>